<svg width="1500" height="500" viewBox="0 0 1500 500" fill="none" xmlns="http://www.w3.org/2000/svg">
<g clip-path="url(#clip0_1132_4062)">
<g filter="url(#filter0_d_1132_4062)">
<rect x="10" y="10" width="1480" height="480" stroke="#008CFF" stroke-width="20" shape-rendering="crispEdges"/>
</g>
<path d="M677.993 175.76C670.73 195.316 654.607 238.37 642.26 271.646C629.768 304.775 619.6 332.213 619.6 332.504C619.6 332.796 633.254 333.088 649.814 333.088H680.172L681.915 326.813C682.932 323.456 685.111 316.305 686.709 310.759L689.614 300.98L723.168 301.272L756.722 301.71L761.661 317.472L766.454 333.088L797.249 332.796C816.713 332.504 827.898 331.775 827.752 330.899C827.462 328.856 757.884 143.506 756.867 141.901C756.286 141.025 742.777 140.441 723.604 140.441H691.212L677.993 175.76ZM734.353 226.403L744.085 258.656H723.313H702.542L703.849 254.57C704.575 252.381 708.788 238.516 713.291 223.63C723.313 190.208 722.587 192.398 723.604 193.419C724.039 193.857 728.833 208.743 734.353 226.403Z" fill="#006EFF"/>
<path d="M931.986 200.576C912.007 203.615 899.372 211.066 892.785 224.008C890.409 228.517 889.977 231.066 889.869 237.439C889.869 244.4 890.301 246.066 893.433 251.851C900.344 264.694 914.707 272.047 946.241 279.008C959.092 281.851 965.571 284.694 968.163 288.419C971.403 293.125 970.971 297.929 967.083 302.047C962.871 306.36 957.904 307.831 949.48 307.341C937.277 306.557 931.014 301.949 927.558 290.968L925.83 285.772L917.515 286.36C912.979 286.655 903.8 287.243 897.105 287.537C890.409 287.929 884.794 288.517 884.578 288.811C883.714 290.282 887.385 302.635 890.409 308.125C897.321 320.968 908.984 328.615 926.37 331.557C937.385 333.419 962.007 333.419 971.943 331.557C989.113 328.321 1002.61 319.008 1009.52 305.87C1012.66 299.792 1012.98 298.419 1012.98 289.4C1012.98 280.87 1012.55 278.909 1010.17 274.204C1002.83 259.988 991.705 254.008 957.688 246.164C947.429 243.811 937.493 241.164 935.765 240.38C928.962 237.243 929.07 230.576 935.765 226.36C940.625 223.419 950.452 223.321 957.04 226.262C960.927 227.929 962.223 229.302 965.031 234.596C967.515 239.4 968.811 240.87 970.107 240.478C971.079 240.282 979.502 239.792 988.681 239.4C997.86 239.106 1006.18 238.615 1007.15 238.321C1011.36 237.243 1004.02 219.498 996.349 212.537C991.273 207.929 984.146 204.4 975.074 202.145C967.839 200.282 940.625 199.302 931.986 200.576Z" fill="#006EFF"/>
<path d="M560.642 221.847L560.63 221.822C554.847 210.462 543.665 203.464 524.399 200.532C520.481 199.956 511.865 199.862 503.068 200.181C494.205 200.503 486.03 201.213 482.902 202.018L482.886 202.023L482.87 202.027C474.243 204.171 467.774 207.454 463.319 211.499C460.085 214.435 456.615 220.023 454.469 225.174C453.551 227.376 452.974 229.265 452.731 230.633C453.669 230.708 454.849 230.787 456.221 230.867C459.527 231.061 463.865 231.256 468.426 231.402L468.447 231.402L468.469 231.403C473.075 231.6 477.496 231.822 480.895 232.019C482.593 232.118 484.048 232.211 485.148 232.293C485.536 232.322 485.936 232.353 486.31 232.387C486.774 231.727 487.442 230.603 488.395 228.759L488.405 228.74L488.414 228.722C489.825 226.062 491.069 223.954 492.649 222.303C494.331 220.545 496.171 219.528 498.337 218.597C502.252 216.855 506.932 216.078 511.25 216.106C515.504 216.132 519.992 216.945 523.285 218.938L523.315 218.957L523.345 218.976C527.4 221.529 530.253 225.343 530.276 229.754C530.3 234.343 527.272 237.991 522.889 240.012L522.878 240.017L522.867 240.022C522.138 240.353 520.918 240.74 519.638 241.119C518.253 241.529 516.488 242.018 514.475 242.551C510.447 243.617 505.355 244.878 500.186 246.063C483.202 249.979 472.375 253.341 464.933 257.321C457.737 261.17 453.687 265.608 450.37 272.023C449.251 274.24 448.745 275.514 448.443 277.11C448.116 278.844 448 281.123 448 285.4C448 289.973 448.095 292.154 448.467 293.909C448.816 295.56 449.446 296.999 451.004 300.023C457.254 311.892 469.598 320.577 485.777 323.626L560.642 221.847ZM560.642 221.847L560.655 221.872M560.642 221.847L560.655 221.872M560.655 221.872C561.734 223.919 562.269 225.324 562.588 226.845C562.922 228.44 563.056 230.338 563.11 233.473C563.109 236.921 562.99 238.636 562.621 240.121C562.254 241.596 561.586 243.071 560.029 245.946L560.024 245.955M560.655 221.872L560.024 245.955M560.024 245.955C554.052 257.053 541.442 264.134 509.876 271.102L509.875 271.102M560.024 245.955L509.875 271.102M509.875 271.102C503.354 272.545 498.237 274.031 494.346 275.71C490.489 277.374 487.44 279.393 485.533 282.135L485.527 282.143M509.875 271.102L485.527 282.143M485.527 282.143L485.522 282.151M485.527 282.143L485.522 282.151M485.522 282.151C483.486 285.108 482.418 288.385 482.697 291.781C482.975 295.17 484.557 298.218 486.988 300.793L487.011 300.817M485.522 282.151L487.011 300.817M487.011 300.817L487.034 300.841M487.011 300.817L487.034 300.841M487.034 300.841C489.574 303.442 492.445 305.271 495.97 306.327C499.411 307.358 503.276 307.593 507.731 307.334L507.743 307.333M487.034 300.841L507.743 307.333M507.743 307.333L507.755 307.333M507.743 307.333L507.755 307.333M507.755 307.333C514.275 306.914 519.752 305.444 524.129 302.187C528.533 298.908 531.34 294.18 533.227 288.201L533.965 285.981L539.182 286.351L539.194 286.351M507.755 307.333L539.194 286.351M539.194 286.351L539.206 286.352M539.194 286.351L539.206 286.352M539.206 286.352C543.727 286.645 552.928 287.235 559.67 287.532C562.926 287.723 565.903 287.96 568.088 288.183C567.845 289.238 567.513 290.477 567.113 291.811C565.957 295.663 564.379 299.813 563.066 302.195L563.057 302.213M539.206 286.352L563.057 302.213M563.057 302.213L563.048 302.23M563.057 302.213L563.048 302.23M563.048 302.23C556.84 313.766 546.382 320.831 529.942 323.613L563.048 302.23ZM485.825 232.99C485.825 232.99 485.828 232.987 485.835 232.981C485.828 232.987 485.825 232.99 485.825 232.99ZM529.942 323.613C524.77 324.487 516.128 324.954 507.418 324.954C498.687 324.954 490.361 324.485 485.777 323.626L529.942 323.613Z" stroke="#006EFF" stroke-width="8"/>
<path d="M1103.94 266.176V330.882H1163.88H1223.81V316.176V301.471H1187.74C1167.87 301.471 1150.92 301.176 1149.95 300.882C1148.54 300.392 1148.22 298.333 1148.22 288.137V275.98H1182.24H1216.25V262.745V249.51H1182.24H1148.22V239.216V228.922H1184.94H1221.65V215.196V201.471H1162.8H1103.94V266.176Z" fill="#006EFF"/>
<path d="M317.765 258.902H287.747V268.137V277.373H317.765H351.782H355.782V281.373V291.667V301.961V305.961H351.782H315.065H282.348V315.686V325.412H337.203H392.058V264.706V204H336.123H280.188V214.706V225.412H312.257C322.21 225.412 331.438 225.485 338.307 225.596C341.739 225.651 344.597 225.716 346.668 225.786C347.7 225.821 348.56 225.858 349.209 225.898C349.529 225.917 349.83 225.939 350.087 225.965C350.093 225.966 350.1 225.966 350.107 225.967C350.258 225.982 350.743 226.029 351.213 226.171L351.293 226.196L351.373 226.224C352.689 226.683 353.745 227.587 354.435 228.862C355.006 229.919 355.257 231.108 355.407 232.184C355.708 234.359 355.782 237.713 355.782 242.745V254.902V258.902H351.782H317.765Z" stroke="#006EFF" stroke-width="8"/>
</g>
<defs>
<filter id="filter0_d_1132_4062" x="-4" y="0" width="1508" height="508" filterUnits="userSpaceOnUse" color-interpolation-filters="sRGB">
<feFlood flood-opacity="0" result="BackgroundImageFix"/>
<feColorMatrix in="SourceAlpha" type="matrix" values="0 0 0 0 0 0 0 0 0 0 0 0 0 0 0 0 0 0 127 0" result="hardAlpha"/>
<feOffset dy="4"/>
<feGaussianBlur stdDeviation="2"/>
<feComposite in2="hardAlpha" operator="out"/>
<feColorMatrix type="matrix" values="0 0 0 0 0 0 0 0 0 0 0 0 0 0 0 0 0 0 0.25 0"/>
<feBlend mode="normal" in2="BackgroundImageFix" result="effect1_dropShadow_1132_4062"/>
<feBlend mode="normal" in="SourceGraphic" in2="effect1_dropShadow_1132_4062" result="shape"/>
</filter>
<clipPath id="clip0_1132_4062">
<rect width="1500" height="500" fill="white"/>
</clipPath>
</defs>
</svg>
